<?xml version="1.0" encoding="utf-8"?>
<!-- Generator: Adobe Illustrator 21.1.0, SVG Export Plug-In . SVG Version: 6.00 Build 0)  -->
<svg version="1.1" xmlns="http://www.w3.org/2000/svg" xmlns:xlink="http://www.w3.org/1999/xlink" x="0px" y="0px"
	 viewBox="0 0 360 200" style="enable-background:new 0 0 360 200;" xml:space="preserve">
<style type="text/css">
	.st0{opacity:0.4;fill:none;stroke:#3F8C6D;stroke-miterlimit:10;}
</style>
<g id="Layer_1">
</g>
<g id="Layer_5">
</g>
<g id="Layer_16">
	<rect x="115.6" y="68.8" class="st0" width="19.4" height="23.8"/>
	<rect x="236.4" y="69" class="st0" width="12" height="23.6"/>
	<rect x="115.6" y="98.3" class="st0" width="19.4" height="23.8"/>
	<rect x="236.4" y="98.5" class="st0" width="12" height="23.6"/>
	<rect x="115.6" y="127.9" class="st0" width="19.4" height="27"/>
	<rect x="236.4" y="128.1" class="st0" width="12" height="26.8"/>
</g>
<g id="stairs">
	<line class="st0" x1="236.4" y1="127.8" x2="236.4" y2="154.5"/>
	<line class="st0" x1="236.4" y1="68.8" x2="236.4" y2="92.6"/>
</g>
<g id="_x31_.0">
	<line class="st0" x1="248.4" y1="66" x2="248.4" y2="154.5"/>
</g>
<g id="_x2E_7">
	<line class="st0" x1="10.5" y1="92.6" x2="71.9" y2="92.6"/>
	<polyline class="st0" points="7.5,154.5 7.5,157.5 355.8,157.5 355.8,154.5 	"/>
	<line class="st0" x1="71.9" y1="66" x2="10.5" y2="66"/>
	<line class="st0" x1="107.4" y1="66" x2="73.3" y2="66"/>
	<line class="st0" x1="291.8" y1="92.6" x2="353.1" y2="92.6"/>
	<line class="st0" x1="109.6" y1="122.1" x2="128.7" y2="122.1"/>
	<line class="st0" x1="130.2" y1="104.5" x2="130.2" y2="122.1"/>
	<polyline class="st0" points="130.2,104.5 128.7,104.5 128.7,122.1 	"/>
	<line class="st0" x1="256.3" y1="122.1" x2="353.1" y2="122.1"/>
	<line class="st0" x1="254" y1="122.1" x2="254.1" y2="122.1"/>
	<line class="st0" x1="254.1" y1="95.5" x2="252.9" y2="95.5"/>
	<polyline class="st0" points="254.1,95.5 254.1,98.3 256.3,98.3 256.3,95.5 	"/>
	<polyline class="st0" points="254.1,122.1 254.1,119.3 256.3,119.3 256.3,122.1 	"/>
	<polyline class="st0" points="107.4,122.1 107.4,119.3 109.6,119.3 109.6,122.1 	"/>
	<polyline class="st0" points="107.4,95.5 107.4,98.3 109.6,98.3 109.6,95.5 	"/>
	<line class="st0" x1="10.5" y1="122.1" x2="107.4" y2="122.1"/>
	<line class="st0" x1="109.6" y1="92.6" x2="290.3" y2="92.6"/>
	<line class="st0" x1="73.3" y1="92.6" x2="107.4" y2="92.6"/>
	<line class="st0" x1="109.5" y1="63.1" x2="353.1" y2="63.1"/>
	<line class="st0" x1="353.1" y1="63.1" x2="353.1" y2="36.5"/>
	<line class="st0" x1="353.1" y1="92.6" x2="353.1" y2="66"/>
	<line class="st0" x1="353.1" y1="122.1" x2="353.1" y2="95.5"/>
	<polyline class="st0" points="353.1,125 353.1,154.5 10.5,154.5 10.5,125 	"/>
	<line class="st0" x1="7.5" y1="63.1" x2="107.4" y2="63.1"/>
	<line class="st0" x1="107.4" y1="63.1" x2="107.4" y2="36.5"/>
	<line class="st0" x1="107.4" y1="92.6" x2="107.4" y2="66"/>
	<line class="st0" x1="109.6" y1="66" x2="109.6" y2="92.6"/>
	<line class="st0" x1="109.6" y1="36.5" x2="109.6" y2="63.1"/>
	<line class="st0" x1="107.4" y1="95.5" x2="10.5" y2="95.5"/>
	<line class="st0" x1="10.5" y1="95.5" x2="10.5" y2="122.1"/>
	<line class="st0" x1="10.5" y1="66" x2="10.5" y2="92.6"/>
	<line class="st0" x1="7.5" y1="154.5" x2="7.5" y2="63.1"/>
	<line class="st0" x1="107.3" y1="154.5" x2="107.3" y2="125"/>
	<line class="st0" x1="256.2" y1="154.5" x2="256.2" y2="125"/>
	<line class="st0" x1="353.1" y1="36.5" x2="356.1" y2="36.5"/>
	<line class="st0" x1="356.1" y1="36.5" x2="356.1" y2="154.5"/>
	<polyline class="st0" points="104.9,36.5 104.9,33.5 110,33.5 110,29.1 351,29.1 351,33.5 356.1,33.5 356.1,36.5 	"/>
	<polyline class="st0" points="233.6,104.5 235.1,104.5 235.1,122.1 	"/>
	<line class="st0" x1="233.6" y1="104.5" x2="233.6" y2="122.1"/>
	<line class="st0" x1="109.5" y1="154.5" x2="109.5" y2="125"/>
	<line class="st0" x1="254" y1="154.5" x2="254" y2="125"/>
	<line class="st0" x1="254" y1="122.1" x2="235.1" y2="122.1"/>
</g>
<g id="_x2E_2">
	<line class="st0" x1="325" y1="33.5" x2="258.8" y2="33.5"/>
	<line class="st0" x1="9.1" y1="55.7" x2="107.4" y2="55.7"/>
	<line class="st0" x1="109.6" y1="98.3" x2="109.6" y2="119.3"/>
	<line class="st0" x1="107.4" y1="119.3" x2="107.4" y2="98.3"/>
	<line class="st0" x1="254.1" y1="119.3" x2="254.1" y2="98.3"/>
	<line class="st0" x1="256.3" y1="98.3" x2="256.3" y2="119.3"/>
	<line class="st0" x1="178.2" y1="33.5" x2="110" y2="33.5"/>
	<line class="st0" x1="251.6" y1="33.5" x2="185.4" y2="33.5"/>
	<line class="st0" x1="351" y1="33.5" x2="332.1" y2="33.5"/>
</g>
<g id="_x2E_5">
	<line class="st0" x1="353.1" y1="95.5" x2="256.3" y2="95.5"/>
	<line class="st0" x1="252.9" y1="95.5" x2="109.6" y2="95.5"/>
	<polyline class="st0" points="130.2,122.1 130.2,125 109.5,125 	"/>
	<polyline class="st0" points="254,125 233.6,125 233.6,122.1 	"/>
	<line class="st0" x1="107.4" y1="125" x2="10.5" y2="125"/>
	<line class="st0" x1="356.1" y1="36.5" x2="104.9" y2="36.5"/>
	<line class="st0" x1="353.1" y1="125" x2="256.2" y2="125"/>
	<line class="st0" x1="290.3" y1="66" x2="109.6" y2="66"/>
	<line class="st0" x1="353.1" y1="66" x2="291.8" y2="66"/>
	<line class="st0" x1="291.8" y1="66" x2="291.8" y2="92.6"/>
	<line class="st0" x1="290.3" y1="66" x2="290.3" y2="92.6"/>
	<line class="st0" x1="71.9" y1="66" x2="71.9" y2="92.6"/>
	<line class="st0" x1="73.3" y1="66" x2="73.3" y2="92.6"/>
	<polygon class="st0" points="254.7,66.2 254.1,66.2 254.1,66 255.6,66 255.6,66.2 254.9,66.2 254.9,68.8 255.6,68.8 255.6,69 
		254.1,69 254.1,68.8 254.7,68.8 	"/>
	<polygon class="st0" points="34.6,125.2 33.9,125.2 33.9,125 35.4,125 35.4,125.2 34.7,125.2 34.7,127.8 35.4,127.8 35.4,128 
		33.9,128 33.9,127.8 34.6,127.8 	"/>
	<polygon class="st0" points="34.6,95.7 34,95.7 34,95.5 35.5,95.5 35.5,95.7 34.8,95.7 34.8,98.3 35.4,98.3 35.4,98.5 34,98.5 
		34,98.3 34.6,98.3 	"/>
	<polygon class="st0" points="34.6,66.2 34,66.2 34,66 35.5,66 35.5,66.2 34.8,66.2 34.8,68.8 35.4,68.8 35.4,69 34,69 34,68.8 
		34.6,68.8 	"/>
	<polygon class="st0" points="328.1,125.2 327.4,125.2 327.4,125 329,125 329,125.2 328.3,125.2 328.3,127.8 328.9,127.8 328.9,128 
		327.4,128 327.4,127.8 328.1,127.8 	"/>
	<polygon class="st0" points="328.1,66.2 327.4,66.2 327.4,66 329,66 329,66.2 328.3,66.2 328.3,68.8 328.9,68.8 328.9,69 327.4,69 
		327.4,68.8 328.1,68.8 	"/>
	<polygon class="st0" points="328.1,36.6 327.4,36.6 327.4,36.5 329,36.5 329,36.6 328.3,36.6 328.3,39.3 328.9,39.3 328.9,39.4 
		327.4,39.4 327.4,39.3 328.1,39.3 	"/>
	<polygon class="st0" points="328.1,95.7 327.4,95.7 327.4,95.5 329,95.5 329,95.7 328.3,95.7 328.3,98.3 328.9,98.3 328.9,98.5 
		327.4,98.5 327.4,98.3 328.1,98.3 	"/>
	<polygon class="st0" points="254.7,36.6 254.1,36.6 254.1,36.5 255.6,36.5 255.6,36.6 254.9,36.6 254.9,39.3 255.6,39.3 
		255.6,39.4 254.1,39.4 254.1,39.3 254.7,39.3 	"/>
	<polygon class="st0" points="181.3,125.2 180.7,125.2 180.7,125 182.2,125 182.2,125.2 181.5,125.2 181.5,127.8 182.2,127.8 
		182.2,128 180.7,128 180.7,127.8 181.3,127.8 	"/>
	<polygon class="st0" points="181.3,95.7 180.7,95.7 180.7,95.5 182.2,95.5 182.2,95.7 181.5,95.7 181.5,98.3 182.2,98.3 
		182.2,98.5 180.7,98.5 180.7,98.3 181.3,98.3 	"/>
	<polygon class="st0" points="181.3,36.6 180.7,36.6 180.7,36.5 182.2,36.5 182.2,36.6 181.5,36.6 181.5,39.3 182.2,39.3 
		182.2,39.4 180.7,39.4 180.7,39.3 181.3,39.3 	"/>
	<polygon class="st0" points="181.3,66.2 180.7,66.2 180.7,66 182.2,66 182.2,66.2 181.5,66.2 181.5,68.8 182.2,68.8 182.2,69 
		180.7,69 180.7,68.8 181.3,68.8 	"/>
</g>
<g id="_x2E_3">
	<line class="st0" x1="135" y1="127.8" x2="135" y2="154.5"/>
	<line class="st0" x1="135" y1="68.8" x2="135" y2="92.6"/>
	<line class="st0" x1="135" y1="98.3" x2="135" y2="122.1"/>
	<line class="st0" x1="138" y1="127.8" x2="138" y2="154.5"/>
	<line class="st0" x1="138" y1="122.1" x2="138" y2="98.3"/>
	<line class="st0" x1="138" y1="92.6" x2="138" y2="68.8"/>
	<line class="st0" x1="224.4" y1="68.8" x2="224.4" y2="92.6"/>
	<line class="st0" x1="224.4" y1="98.3" x2="224.4" y2="122.1"/>
	<polygon class="st0" points="325,33.2 325,36.2 332.1,36.2 332.1,33.2 332.1,30.3 325,30.3 	"/>
	<line class="st0" x1="130.2" y1="122.1" x2="233.6" y2="122.1"/>
	<line class="st0" x1="233.6" y1="125" x2="130.2" y2="125"/>
	<line class="st0" x1="224.4" y1="127.8" x2="224.4" y2="154.5"/>
	<line class="st0" x1="175.2" y1="68.8" x2="175.2" y2="92.6"/>
	<polygon class="st0" points="251.6,33.2 251.6,36.2 258.8,36.2 258.8,33.2 258.8,30.3 251.6,30.3 	"/>
	<line class="st0" x1="175.2" y1="98.3" x2="175.2" y2="122.1"/>
	<line class="st0" x1="175.2" y1="127.8" x2="175.2" y2="154.5"/>
	<line class="st0" x1="187.2" y1="127.8" x2="187.2" y2="154.5"/>
	<line class="st0" x1="187.2" y1="98.3" x2="187.2" y2="122.1"/>
	<line class="st0" x1="187.2" y1="68.8" x2="187.2" y2="92.6"/>
	<polygon class="st0" points="178.2,33.2 178.2,36.2 185.4,36.2 185.4,33.2 185.4,30.3 178.2,30.3 	"/>
	<polyline class="st0" points="105.5,36.5 105.5,34.1 110.6,34.1 110.6,29.7 350.4,29.7 350.4,34.1 355.5,34.1 355.5,36.5 	"/>
</g>
<g id="light_details">
	<rect x="339.3" y="42.4" class="st0" width="7.7" height="8.9"/>
	<rect x="151.9" y="42.4" class="st0" width="13.3" height="8.9"/>
	<polyline class="st0" points="271.9,63.1 271.9,42.4 280.8,42.4 280.8,63.1 	"/>
	<line class="st0" x1="254.1" y1="98.3" x2="182.2" y2="98.3"/>
	<line class="st0" x1="327.4" y1="98.3" x2="256.3" y2="98.3"/>
	<line class="st0" x1="255.2" y1="98.3" x2="255.2" y2="119.3"/>
	<line class="st0" x1="107.4" y1="98.3" x2="35.4" y2="98.3"/>
	<line class="st0" x1="109.6" y1="98.3" x2="180.7" y2="98.3"/>
	<line class="st0" x1="108.5" y1="98.3" x2="108.5" y2="119.3"/>
	<rect x="298.9" y="101.4" class="st0" width="13.3" height="11.8"/>
	<rect x="269.3" y="101.4" class="st0" width="13.3" height="11.8"/>
	<rect x="51.6" y="101.4" class="st0" width="13.3" height="11.8"/>
	<rect x="81.1" y="101.4" class="st0" width="13.3" height="11.8"/>
	<rect x="81.1" y="71.9" class="st0" width="13.3" height="11.8"/>
	<rect x="51.6" y="71.9" class="st0" width="13.3" height="11.8"/>
	<rect x="269.3" y="71.9" class="st0" width="13.3" height="11.8"/>
	<rect x="298.9" y="71.9" class="st0" width="13.3" height="11.8"/>
	<polyline class="st0" points="209.7,154.5 209.7,133.9 218.5,133.9 218.5,154.5 	"/>
	<polyline class="st0" points="209.7,122.1 209.7,101.4 218.5,101.4 218.5,122.1 	"/>
	<polyline class="st0" points="209.7,92.6 209.7,71.9 218.5,71.9 218.5,92.6 	"/>
	<polyline class="st0" points="191.1,154.5 191.1,133.9 199.9,133.9 199.9,154.5 	"/>
	<polyline class="st0" points="191.1,122.1 191.1,101.4 199.9,101.4 199.9,122.1 	"/>
	<polyline class="st0" points="191.1,92.6 191.1,71.9 199.9,71.9 199.9,92.6 	"/>
	<polyline class="st0" points="160.4,122.1 160.4,101.4 169.3,101.4 169.3,122.1 	"/>
	<polyline class="st0" points="160.4,92.6 160.4,71.9 169.3,71.9 169.3,92.6 	"/>
	<polyline class="st0" points="141.8,92.6 141.8,71.9 150.7,71.9 150.7,92.6 	"/>
	<polyline class="st0" points="141.8,122.1 141.8,101.4 150.7,101.4 150.7,122.1 	"/>
	<line class="st0" x1="109.5" y1="39.3" x2="180.7" y2="39.3"/>
	<line class="st0" x1="109.5" y1="68.8" x2="180.7" y2="68.8"/>
	<line class="st0" x1="109.5" y1="127.8" x2="180.7" y2="127.8"/>
	<line class="st0" x1="327.4" y1="39.3" x2="255.6" y2="39.3"/>
	<line class="st0" x1="327.4" y1="68.8" x2="255.6" y2="68.8"/>
	<line class="st0" x1="33.9" y1="127.8" x2="10.4" y2="127.8"/>
	<line class="st0" x1="107.3" y1="127.8" x2="35.4" y2="127.8"/>
	<line class="st0" x1="254.1" y1="39.3" x2="182.2" y2="39.3"/>
	<line class="st0" x1="180.7" y1="68.8" x2="157.2" y2="68.8"/>
	<line class="st0" x1="254.1" y1="68.8" x2="182.2" y2="68.8"/>
	<line class="st0" x1="254.1" y1="127.8" x2="182.2" y2="127.8"/>
	<line class="st0" x1="328.9" y1="98.3" x2="353.1" y2="98.3"/>
	<line class="st0" x1="328.9" y1="39.3" x2="353.1" y2="39.3"/>
	<line class="st0" x1="328.9" y1="68.8" x2="353.1" y2="68.8"/>
	<line class="st0" x1="328.9" y1="127.8" x2="353.1" y2="127.8"/>
	<line class="st0" x1="327.4" y1="127.8" x2="256.3" y2="127.8"/>
	<line class="st0" x1="107.3" y1="68.8" x2="35.4" y2="68.8"/>
	<line class="st0" x1="34" y1="68.8" x2="10.5" y2="68.8"/>
	<line class="st0" x1="34" y1="98.3" x2="10.5" y2="98.3"/>
	<line class="st0" x1="9.1" y1="54.2" x2="107.4" y2="54.2"/>
	<line class="st0" x1="9.1" y1="54.2" x2="9.1" y2="63.1"/>
	<line class="st0" x1="10.5" y1="55.7" x2="10.5" y2="63.1"/>
	<line class="st0" x1="21.1" y1="55.7" x2="21.1" y2="63.1"/>
	<line class="st0" x1="19.6" y1="55.7" x2="19.6" y2="63.1"/>
	<line class="st0" x1="30.2" y1="55.7" x2="30.2" y2="63.1"/>
	<line class="st0" x1="31.6" y1="55.7" x2="31.6" y2="63.1"/>
	<line class="st0" x1="40.7" y1="55.7" x2="40.7" y2="63.1"/>
	<line class="st0" x1="42.2" y1="55.7" x2="42.2" y2="63.1"/>
	<line class="st0" x1="51.3" y1="55.7" x2="51.3" y2="63.1"/>
	<line class="st0" x1="52.7" y1="55.7" x2="52.7" y2="63.1"/>
	<line class="st0" x1="61.8" y1="55.7" x2="61.8" y2="63.1"/>
	<line class="st0" x1="63.3" y1="55.7" x2="63.3" y2="63.1"/>
	<polyline class="st0" points="125.3,63.1 125.3,42.4 134.1,42.4 134.1,63.1 	"/>
	<line class="st0" x1="72.3" y1="55.7" x2="72.3" y2="63.1"/>
	<line class="st0" x1="73.8" y1="55.7" x2="73.8" y2="63.1"/>
	<line class="st0" x1="82.9" y1="55.7" x2="82.9" y2="63.1"/>
	<line class="st0" x1="84.4" y1="55.7" x2="84.4" y2="63.1"/>
	<line class="st0" x1="93.4" y1="55.7" x2="93.4" y2="63.1"/>
	<line class="st0" x1="94.9" y1="55.7" x2="94.9" y2="63.1"/>
	<rect x="290.5" y="42.4" class="st0" width="28.3" height="12"/>
	<polyline class="st0" points="160.4,154.5 160.4,133.9 169.3,133.9 169.3,154.5 	"/>
	<polyline class="st0" points="141.8,154.5 141.8,133.9 150.7,133.9 150.7,154.5 	"/>
	<ellipse class="st0" cx="167.1" cy="113.8" rx="0.9" ry="0.8"/>
	<ellipse class="st0" cx="198.4" cy="113.8" rx="0.9" ry="0.8"/>
	<ellipse class="st0" cx="216.8" cy="113.8" rx="0.9" ry="0.8"/>
	<ellipse class="st0" cx="148.8" cy="113.8" rx="0.9" ry="0.8"/>
	<ellipse class="st0" cx="166.8" cy="84.1" rx="0.9" ry="0.8"/>
	<ellipse class="st0" cx="198.2" cy="84.1" rx="0.9" ry="0.8"/>
	<ellipse class="st0" cx="216.5" cy="84.1" rx="0.9" ry="0.8"/>
	<ellipse class="st0" cx="148.5" cy="84.1" rx="0.9" ry="0.8"/>
	<ellipse class="st0" cx="198.5" cy="146.5" rx="0.9" ry="0.8"/>
	<ellipse class="st0" cx="216.9" cy="146.5" rx="0.9" ry="0.8"/>
	<ellipse class="st0" cx="131.5" cy="54.7" rx="0.9" ry="0.8"/>
</g>
<g id="_x2E_01_grey">
	<polyline class="st0" points="325,157.5 325,160.9 332.1,160.9 332.1,157.5 	"/>
	<polyline class="st0" points="251.6,157.5 251.6,160.9 258.8,160.9 258.8,157.5 	"/>
	<polyline class="st0" points="178.2,157.5 178.2,160.9 185.4,160.9 185.4,157.5 	"/>
	<polyline class="st0" points="104.9,157.5 104.9,160.9 112,160.9 112,157.5 	"/>
	<polyline class="st0" points="31.5,157.5 31.5,160.9 38.7,160.9 38.7,157.5 	"/>
	<line class="st0" x1="104.9" y1="125" x2="104.9" y2="154.5"/>
	<line class="st0" x1="104.9" y1="66" x2="104.9" y2="92.6"/>
	<line class="st0" x1="112" y1="66" x2="112" y2="92.6"/>
	<line class="st0" x1="38.7" y1="66" x2="38.7" y2="92.6"/>
	<line class="st0" x1="31.5" y1="66" x2="31.5" y2="92.6"/>
	<line class="st0" x1="38.7" y1="95.5" x2="38.7" y2="122.1"/>
	<line class="st0" x1="31.5" y1="95.5" x2="31.5" y2="122.1"/>
	<line class="st0" x1="112" y1="95.5" x2="112" y2="122.1"/>
	<line class="st0" x1="104.9" y1="95.5" x2="104.9" y2="122.1"/>
	<line class="st0" x1="332.1" y1="125" x2="332.1" y2="154.5"/>
	<line class="st0" x1="325" y1="125" x2="325" y2="154.5"/>
	<line class="st0" x1="258.8" y1="125" x2="258.8" y2="154.5"/>
	<line class="st0" x1="251.6" y1="125" x2="251.6" y2="154.5"/>
	<line class="st0" x1="332.1" y1="96" x2="332.1" y2="125.5"/>
	<line class="st0" x1="325" y1="96" x2="325" y2="125.5"/>
	<line class="st0" x1="258.8" y1="96" x2="258.8" y2="125.5"/>
	<line class="st0" x1="332.1" y1="66" x2="332.1" y2="95.5"/>
	<line class="st0" x1="325" y1="66" x2="325" y2="95.5"/>
	<line class="st0" x1="258.8" y1="66" x2="258.8" y2="95.5"/>
	<line class="st0" x1="178.2" y1="125" x2="178.2" y2="154.5"/>
	<line class="st0" x1="185.4" y1="125" x2="185.4" y2="154.5"/>
	<line class="st0" x1="185.4" y1="95.5" x2="185.4" y2="125"/>
	<line class="st0" x1="178.2" y1="95.5" x2="178.2" y2="125"/>
	<line class="st0" x1="185.4" y1="36.5" x2="185.4" y2="63.1"/>
	<line class="st0" x1="178.2" y1="36.5" x2="178.2" y2="63.1"/>
	<line class="st0" x1="185.4" y1="66" x2="185.4" y2="92.6"/>
	<line class="st0" x1="178.2" y1="66" x2="178.2" y2="92.6"/>
	<line class="st0" x1="31.4" y1="125" x2="31.4" y2="154.5"/>
	<line class="st0" x1="38.6" y1="125" x2="38.6" y2="154.5"/>
	<line class="st0" x1="332.1" y1="36.5" x2="332.1" y2="63.1"/>
	<line class="st0" x1="325" y1="36.5" x2="325" y2="63.1"/>
	<line class="st0" x1="258.8" y1="36.5" x2="258.8" y2="63.1"/>
	<line class="st0" x1="251.6" y1="36.5" x2="251.6" y2="63.1"/>
	<line class="st0" x1="251.6" y1="68.8" x2="251.6" y2="92.6"/>
	<line class="st0" x1="112" y1="127" x2="112" y2="154.5"/>
	<line class="st0" x1="251.6" y1="96" x2="251.6" y2="125.5"/>
</g>
</svg>
