<?xml version="1.0" encoding="utf-8"?>
<!-- Generator: Adobe Illustrator 21.1.0, SVG Export Plug-In . SVG Version: 6.00 Build 0)  -->
<svg version="1.1" id="Layer_1" xmlns="http://www.w3.org/2000/svg" xmlns:xlink="http://www.w3.org/1999/xlink" x="0px" y="0px"
	 viewBox="0 0 107.6 27.8" style="enable-background:new 0 0 107.6 27.8;" xml:space="preserve">
<style type="text/css">
	.st0{fill:#395967;}
</style>
<path class="st0" d="M8.5,0C8.8,0,9,0.1,9.2,0.2s0.3,0.4,0.3,0.7c0,0.2,0,0.5-0.1,0.9S9.1,2.5,8.9,2.9S8.6,3.7,8.3,4.1
	S7.9,5,7.6,5.4S7.1,6.3,6.8,6.7S6.2,7.5,5.9,7.8c-0.6,0.7-1,1.3-1.5,1.8s-0.8,0.9-1.1,1.2s-0.5,0.6-0.8,0.8S2.3,12,2.1,12.1
	s-0.3,0.3-0.4,0.4s-0.3,0.3-0.4,0.4c-0.1,0.3-0.1,0.6-0.1,0.8s0,0.5,0,0.7c0,0.7,0.1,1.2,0.3,1.5s0.5,0.5,0.9,0.5
	c0.3,0,0.5-0.1,0.8-0.2s0.5-0.3,0.8-0.5s0.5-0.5,0.8-0.7s0.5-0.6,0.7-0.8s0.4-0.6,0.6-0.8s0.3-0.5,0.5-0.7L7.1,13
	c0,0-0.1,0.2-0.2,0.4s-0.3,0.5-0.5,0.8s-0.5,0.6-0.8,1s-0.6,0.7-0.9,1s-0.7,0.5-1.1,0.7s-0.7,0.3-1.1,0.3c-0.3,0-0.6-0.1-0.9-0.2
	S1,16.6,0.7,16.4s-0.4-0.6-0.5-1S0,14.5,0,13.9c0-0.7,0.1-1.5,0.3-2.2s0.4-1.6,0.7-2.3S1.6,7.8,2,7s0.8-1.5,1.2-2.2s0.9-1.3,1.4-1.9
	s1-1.1,1.4-1.5s0.9-0.8,1.3-1S8.2,0,8.5,0z M1.5,11.9c0.7-0.7,1.3-1.4,1.9-2.1s1.2-1.4,1.7-2.1s1-1.4,1.5-2s0.8-1.3,1.2-1.8
	s0.6-1.1,0.8-1.6S8.8,1.4,8.8,1c0-0.1,0-0.1-0.1-0.3S8.6,0.6,8.5,0.6c-0.2,0-0.6,0.2-1,0.5S6.7,1.8,6.3,2.4S5.3,3.6,4.8,4.3
	s-1,1.5-1.4,2.4S2.6,8.4,2.3,9.3S1.7,11,1.5,11.9z"/>
<path class="st0" d="M15.9,9.3c-0.1,0.2-0.2,0.5-0.4,0.8s-0.4,0.7-0.6,1.1s-0.4,0.8-0.6,1.2s-0.4,0.8-0.6,1.3s-0.3,0.8-0.4,1.2
	s-0.2,0.7-0.2,0.9s0,0.4,0.1,0.5s0.2,0.1,0.4,0.1c0.2,0,0.5-0.1,0.7-0.2s0.5-0.3,0.7-0.5s0.5-0.4,0.7-0.7s0.4-0.5,0.6-0.8
	s0.4-0.5,0.5-0.8s0.3-0.5,0.4-0.6l0.4,0.3c-0.1,0.2-0.3,0.5-0.5,0.8s-0.4,0.6-0.6,0.9s-0.4,0.6-0.7,0.8s-0.5,0.5-0.8,0.7
	s-0.6,0.4-0.9,0.5S13.6,17,13.3,17c-0.5,0-0.8-0.1-1-0.4s-0.3-0.6-0.3-1.1c0,0,0-0.1,0-0.2s0-0.2,0-0.3c-0.4,0.5-0.8,0.9-1.1,1.2
	s-0.7,0.6-1,0.8s-0.7,0.3-1,0.4S8.2,17.5,8,17.5c-0.3,0-0.6,0-0.8-0.1s-0.5-0.2-0.7-0.4S6.1,16.5,6,16.2s-0.2-0.6-0.2-0.9
	c0-0.4,0.1-1,0.3-1.5s0.6-1.2,1.1-1.9c0.4-0.6,0.9-1.1,1.3-1.4s0.9-0.7,1.4-0.9s0.9-0.4,1.3-0.5s0.8-0.2,1.1-0.2
	c0.7,0,1.3,0.1,1.6,0.4s0.6,0.6,0.7,1.1c0.2-0.2,0.3-0.4,0.5-0.6s0.3-0.4,0.5-0.6L15.9,9.3z M12.3,13.7c0.1-0.2,0.2-0.4,0.4-0.6
	s0.3-0.5,0.5-0.8s0.3-0.5,0.5-0.8s0.3-0.5,0.4-0.6c0-0.1,0-0.2,0-0.3s-0.1-0.3-0.2-0.5s-0.2-0.3-0.4-0.4S13,9.5,12.7,9.5
	c-0.2,0-0.5,0-0.8,0.1s-0.6,0.2-1,0.4s-0.7,0.4-1,0.7s-0.7,0.6-1.1,1.1c-0.5,0.6-1,1.3-1.2,2s-0.4,1.2-0.4,1.8c0,0.4,0.1,0.8,0.3,1
	s0.5,0.4,0.9,0.4c0.4,0,0.8-0.1,1.2-0.3s0.7-0.4,1.1-0.7s0.6-0.6,0.9-1S12.1,14.1,12.3,13.7z"/>
<path class="st0" d="M22.7,14.5c-0.4,0.4-0.7,0.8-1.1,1.2s-0.7,0.7-1,0.9s-0.7,0.5-1,0.6s-0.7,0.2-1,0.2c-0.3,0-0.6-0.1-0.8-0.2
	s-0.4-0.3-0.6-0.4s-0.3-0.4-0.4-0.7s-0.1-0.6-0.1-0.9c0-0.5,0.1-1.1,0.4-1.7s0.5-1.1,0.9-1.7s0.8-1.1,1.2-1.5s0.9-0.9,1.3-1.3
	l0.5,0.4c-0.3,0.4-0.6,0.9-0.9,1.4s-0.7,1.1-1,1.6s-0.6,1.1-0.8,1.7s-0.3,1.1-0.3,1.6c0,0.3,0.1,0.6,0.2,0.8s0.4,0.3,0.7,0.3
	c0.4,0,0.8-0.1,1.2-0.4s0.9-0.7,1.4-1.2s0.9-1,1.4-1.6s0.9-1.2,1.3-1.8s0.8-1.2,1.2-1.7s0.6-1,0.8-1.4L26.8,9
	c-0.5,0.9-0.9,1.7-1.3,2.5s-0.8,1.5-1.1,2.1s-0.6,1.1-0.8,1.6s-0.3,0.8-0.3,1.1c0,0.1,0,0.2,0.1,0.3s0.1,0.1,0.2,0.1
	c0.3,0,0.6-0.1,1-0.4s0.7-0.6,1.1-1s0.7-0.8,1-1.3s0.6-0.9,0.9-1.3l0.4,0.3c0,0.1-0.1,0.2-0.3,0.5s-0.3,0.5-0.6,0.8s-0.5,0.6-0.8,1
	s-0.6,0.7-0.9,0.9s-0.6,0.5-1,0.7s-0.7,0.3-1,0.3c-0.2,0-0.4,0-0.5-0.1s-0.3-0.2-0.4-0.3s-0.2-0.3-0.3-0.4s-0.1-0.3-0.1-0.5
	c0-0.2,0-0.4,0.1-0.7S22.6,14.8,22.7,14.5z"/>
<path class="st0" d="M35,13c-0.1,0.2-0.3,0.4-0.4,0.7s-0.3,0.6-0.6,0.9s-0.4,0.7-0.7,1s-0.5,0.7-0.8,0.9s-0.6,0.5-1,0.7
	s-0.7,0.3-1.1,0.3c-0.2,0-0.4,0-0.6-0.1s-0.4-0.2-0.5-0.3s-0.3-0.3-0.4-0.5s-0.1-0.5-0.1-0.7c0-0.4,0.1-0.8,0.2-1.2s0.3-0.8,0.5-1.2
	s0.4-0.7,0.6-1.1s0.4-0.6,0.4-0.8s0.1-0.4,0.1-0.5c0-0.1,0-0.2-0.1-0.3s-0.1-0.2-0.2-0.2s-0.2-0.2-0.3-0.2s-0.2-0.2-0.3-0.3
	c-0.2,0.3-0.4,0.6-0.6,0.9c-0.2,0.3-0.4,0.6-0.6,0.9s-0.4,0.7-0.6,1l-0.4-0.3l2.5-3.9l0.3,0.2c0,0,0,0.1-0.1,0.2s-0.1,0.2-0.1,0.3
	c0,0.1,0,0.2,0,0.3s0.1,0.2,0.2,0.2c0.3,0.3,0.6,0.5,0.7,0.7s0.3,0.3,0.4,0.4s0.1,0.2,0.2,0.2s0,0.1,0,0.2s0,0.2,0,0.3
	s-0.1,0.3-0.2,0.5s-0.2,0.4-0.3,0.7s-0.3,0.5-0.5,0.9c-0.1,0.2-0.2,0.4-0.3,0.6s-0.2,0.4-0.3,0.6s-0.2,0.4-0.2,0.6s-0.1,0.4-0.1,0.6
	c0,0.1,0,0.3,0.1,0.4s0.1,0.2,0.2,0.2s0.1,0.1,0.2,0.1s0.2,0,0.2,0c0.3,0,0.5-0.1,0.8-0.2s0.5-0.3,0.8-0.6s0.5-0.5,0.7-0.8
	s0.5-0.6,0.7-0.9s0.4-0.6,0.6-0.9s0.3-0.5,0.5-0.8L35,13z"/>
<path class="st0" d="M35.5,14.4c0,0.1,0,0.2,0,0.3s0,0.2,0,0.3c0,0.3,0,0.5,0.1,0.8s0.2,0.5,0.4,0.7s0.4,0.3,0.6,0.5S37,17,37.3,17
	c1,0,2-0.3,3-1s1.9-1.8,2.8-3.3l0.4,0.4c-0.5,0.9-1,1.6-1.6,2.2s-1.1,1.1-1.6,1.4s-1,0.6-1.6,0.8s-1,0.2-1.5,0.2
	c-0.3,0-0.7,0-1.1-0.1s-0.7-0.2-1-0.5s-0.6-0.5-0.8-0.9s-0.3-0.8-0.3-1.4c0-0.6,0.1-1.2,0.3-1.7s0.5-1,0.8-1.5s0.7-0.9,1.1-1.3
	s0.8-0.7,1.3-1s0.8-0.5,1.2-0.6s0.8-0.2,1.1-0.2c0.2,0,0.4,0,0.6,0.1s0.4,0.2,0.6,0.3s0.3,0.3,0.4,0.5s0.2,0.5,0.2,0.8
	c0,0.4-0.1,0.8-0.3,1.2s-0.4,0.7-0.8,1s-0.7,0.6-1.1,0.8s-0.9,0.5-1.3,0.6s-0.9,0.3-1.4,0.4S35.9,14.4,35.5,14.4z M35.6,13.9
	c0.5-0.1,1-0.2,1.5-0.3s0.9-0.4,1.3-0.6s0.7-0.5,1-0.8s0.6-0.6,0.8-0.9s0.4-0.6,0.5-0.8s0.2-0.5,0.2-0.7s-0.1-0.4-0.2-0.5
	s-0.2-0.2-0.4-0.2c-0.3,0-0.7,0.1-1.2,0.4s-0.9,0.6-1.3,1s-0.8,0.9-1.2,1.5S35.8,13.2,35.6,13.9z"/>
<path class="st0" d="M52.9,11c0,0.3-0.1,0.7-0.2,1s-0.3,0.7-0.4,1s-0.4,0.7-0.6,1s-0.4,0.7-0.6,1s-0.3,0.6-0.4,0.9s-0.2,0.5-0.2,0.8
	c0,0.2,0,0.3,0.1,0.4s0.2,0.1,0.3,0.1c0.3,0,0.6-0.1,1-0.4s0.7-0.7,1.1-1.1s0.8-0.9,1.1-1.5s0.7-1,1-1.5l0.4,0.3
	c-0.1,0.1-0.2,0.3-0.3,0.6s-0.4,0.6-0.6,0.9s-0.5,0.7-0.8,1.1s-0.6,0.7-1,1.1s-0.7,0.6-1.1,0.8s-0.7,0.3-1.1,0.3
	c-0.2,0-0.4,0-0.6-0.1s-0.3-0.2-0.4-0.3s-0.2-0.3-0.3-0.4s-0.1-0.3-0.1-0.5c0-0.3,0.1-0.6,0.2-1s0.3-0.7,0.5-1.1s0.4-0.8,0.7-1.1
	s0.5-0.7,0.7-1.1s0.4-0.7,0.5-1s0.2-0.5,0.2-0.8c0-0.2-0.1-0.4-0.2-0.6s-0.3-0.2-0.5-0.2c-0.2,0-0.5,0.1-0.9,0.3s-0.7,0.5-1.1,0.9
	s-0.8,0.9-1.3,1.5s-1,1.2-1.6,2c-0.3,0.4-0.6,0.8-0.9,1.2c-0.1,0.2-0.3,0.3-0.4,0.5s-0.3,0.4-0.4,0.5s-0.3,0.3-0.4,0.5
	s-0.2,0.3-0.3,0.4l-1-0.4l1.4-1.9c0.2-0.3,0.4-0.6,0.6-0.9s0.4-0.6,0.6-0.9s0.4-0.7,0.6-1s0.3-0.6,0.5-1c0.2-0.5,0.4-0.9,0.5-1.2
	s0.1-0.6,0.1-0.7c0-0.2,0-0.3-0.1-0.4S47,9,46.8,9c-0.1,0-0.3,0.1-0.5,0.2s-0.4,0.3-0.6,0.6s-0.4,0.5-0.6,0.8s-0.4,0.6-0.6,0.9
	s-0.4,0.6-0.5,0.8s-0.3,0.5-0.4,0.6l-0.4-0.3c0.4-0.6,0.8-1.2,1.1-1.7s0.6-1,0.9-1.3S45.8,9,46,8.7s0.6-0.3,0.9-0.3
	c0.2,0,0.3,0,0.5,0.1s0.3,0.2,0.4,0.3s0.2,0.3,0.3,0.5s0.1,0.4,0.1,0.7c0,0.2,0,0.4-0.1,0.6c0.3-0.3,0.7-0.6,1-0.8s0.6-0.4,0.8-0.5
	s0.5-0.2,0.7-0.3S51.1,9,51.2,9c0.1,0,0.3,0,0.5,0.1s0.4,0.2,0.6,0.3s0.3,0.4,0.4,0.6S52.9,10.6,52.9,11z"/>
<path class="st0" d="M67.4,14.4c-0.3,0.3-0.6,0.6-0.9,0.9s-0.6,0.5-0.9,0.7s-0.6,0.4-0.9,0.5s-0.6,0.2-0.8,0.2
	c-0.3,0-0.6-0.1-0.8-0.2s-0.5-0.3-0.6-0.5s-0.3-0.5-0.4-0.8s-0.1-0.6-0.1-1c0-0.5,0.1-1,0.3-1.5s0.4-1,0.8-1.5s0.7-0.9,1-1.4
	S64.6,9.3,65,9l0.5,0.4c-0.1,0.1-0.2,0.3-0.4,0.6s-0.3,0.5-0.5,0.8s-0.4,0.6-0.6,1s-0.4,0.7-0.5,1.1s-0.3,0.8-0.4,1.1S63,14.7,63,15
	c0,0.2,0,0.3,0,0.5s0.1,0.3,0.1,0.4s0.2,0.2,0.3,0.3s0.2,0.1,0.4,0.1c0.3,0,0.6-0.1,0.9-0.3s0.7-0.4,1-0.7s0.7-0.6,1.1-1
	s0.7-0.8,1.1-1.3s0.7-0.9,1-1.4s0.6-0.9,0.9-1.4c0.2-0.4,0.5-0.8,0.8-1.2s0.5-0.8,0.8-1.2L71.9,8c0,0-0.1,0.2-0.2,0.4
	s-0.3,0.7-0.5,1.1s-0.5,1-0.8,1.6s-0.6,1.3-1,2s-0.7,1.4-1,2.2s-0.7,1.4-1,2.1c1.1-0.6,2.1-1.3,3-2.2s1.7-1.7,2.3-2.6L73,13
	c-0.7,1-1.5,2-2.5,2.9s-2.2,1.7-3.6,2.5c-0.6,1.4-1.3,2.7-1.9,3.8s-1.2,2.1-1.9,3s-1.2,1.5-1.9,1.9s-1.3,0.7-1.9,0.7
	c-0.4,0-0.8-0.1-1.1-0.4s-0.4-0.7-0.4-1.2c0-0.4,0.1-0.9,0.3-1.3s0.5-0.9,0.8-1.4s0.8-0.9,1.2-1.4s1-0.9,1.5-1.3s1.1-0.8,1.8-1.2
	s1.2-0.7,1.9-1.1c0.2-0.3,0.3-0.7,0.5-1.1s0.4-0.7,0.6-1.1s0.4-0.7,0.5-1S67.3,14.6,67.4,14.4z M64.8,19.6c-0.9,0.6-1.7,1.1-2.5,1.8
	s-1.4,1.2-2,1.9s-1,1.2-1.3,1.7s-0.5,1-0.5,1.4c0,0.2,0.1,0.4,0.2,0.6s0.3,0.2,0.6,0.2c0.3,0,0.6-0.1,0.9-0.3s0.6-0.5,1-0.8
	s0.6-0.8,1-1.3s0.6-1,0.9-1.6s0.6-1.1,0.9-1.7S64.6,20.2,64.8,19.6z"/>
<path class="st0" d="M81.9,9.3c-0.1,0.2-0.2,0.5-0.4,0.8s-0.4,0.7-0.6,1.1s-0.4,0.8-0.6,1.2s-0.4,0.8-0.6,1.3s-0.3,0.8-0.4,1.2
	s-0.2,0.7-0.2,0.9s0,0.4,0.1,0.5s0.2,0.1,0.4,0.1c0.2,0,0.5-0.1,0.7-0.2s0.5-0.3,0.7-0.5s0.5-0.4,0.7-0.7s0.4-0.5,0.6-0.8
	s0.4-0.5,0.5-0.8s0.3-0.5,0.4-0.6l0.4,0.3c-0.1,0.2-0.3,0.5-0.5,0.8s-0.4,0.6-0.6,0.9s-0.4,0.6-0.7,0.8s-0.5,0.5-0.8,0.7
	s-0.6,0.4-0.9,0.5S79.6,17,79.3,17c-0.5,0-0.8-0.1-1-0.4s-0.3-0.6-0.3-1.1c0,0,0-0.1,0-0.2s0-0.2,0-0.3c-0.4,0.5-0.8,0.9-1.1,1.2
	s-0.7,0.6-1,0.8s-0.7,0.3-1,0.4s-0.6,0.1-0.9,0.1c-0.3,0-0.6,0-0.8-0.1s-0.5-0.2-0.7-0.4s-0.4-0.4-0.5-0.7s-0.2-0.6-0.2-0.9
	c0-0.4,0.1-1,0.3-1.5s0.6-1.2,1.1-1.9c0.4-0.6,0.9-1.1,1.3-1.4s0.9-0.7,1.4-0.9s0.9-0.4,1.3-0.5s0.8-0.2,1.1-0.2
	c0.7,0,1.3,0.1,1.6,0.4s0.6,0.6,0.7,1.1c0.2-0.2,0.3-0.4,0.5-0.6s0.3-0.4,0.5-0.6L81.9,9.3z M78.3,13.7c0.1-0.2,0.2-0.4,0.4-0.6
	s0.3-0.5,0.5-0.8s0.3-0.5,0.5-0.8s0.3-0.5,0.4-0.6c0-0.1,0-0.2,0-0.3s-0.1-0.3-0.2-0.5s-0.2-0.3-0.4-0.4S79,9.5,78.7,9.5
	c-0.2,0-0.5,0-0.8,0.1s-0.6,0.2-1,0.4s-0.7,0.4-1,0.7s-0.7,0.6-1.1,1.1c-0.5,0.6-1,1.3-1.2,2s-0.4,1.2-0.4,1.8c0,0.4,0.1,0.8,0.3,1
	s0.5,0.4,0.9,0.4c0.4,0,0.8-0.1,1.2-0.3s0.7-0.4,1.1-0.7s0.6-0.6,0.9-1S78,14.1,78.3,13.7z"/>
<path class="st0" d="M85.6,7.4C85.7,7.2,85.8,7,86,6.7s0.4-0.7,0.7-1.1s0.6-0.8,0.9-1.2s0.6-0.7,0.9-1l0.5,0.3
	c-0.3,0.6-0.7,1.1-1,1.8s-0.7,1.3-1,1.9h3.8L90.6,8h-3.9c-0.4,0.7-0.7,1.4-1,2.1s-0.6,1.4-0.8,2s-0.4,1.2-0.6,1.8s-0.2,1-0.2,1.4
	c0,0.5,0.1,0.9,0.4,1.1s0.5,0.3,0.9,0.3c0.3,0,0.6-0.1,0.9-0.3s0.6-0.4,0.9-0.7s0.6-0.6,0.9-0.9s0.5-0.7,0.7-0.9s0.4-0.6,0.5-0.8
	s0.2-0.4,0.3-0.4L90,13c-0.3,0.5-0.6,0.9-0.9,1.4s-0.7,1-1.1,1.4s-0.9,0.8-1.4,1.1s-1,0.4-1.6,0.4c-0.4,0-0.7-0.1-0.9-0.2
	s-0.5-0.3-0.7-0.5s-0.3-0.5-0.4-0.8s-0.1-0.6-0.1-1c0-0.2,0-0.6,0.1-1s0.2-0.9,0.4-1.5s0.4-1.3,0.7-2s0.7-1.5,1.1-2.4h-1.9l0.2-0.6
	H85.6z"/>
<path class="st0" d="M98.9,9.3c-0.1,0.2-0.2,0.5-0.4,0.8s-0.4,0.7-0.6,1.1s-0.4,0.8-0.6,1.2s-0.4,0.8-0.6,1.3s-0.3,0.8-0.4,1.2
	s-0.2,0.7-0.2,0.9s0,0.4,0.1,0.5s0.2,0.1,0.4,0.1c0.2,0,0.5-0.1,0.7-0.2s0.5-0.3,0.7-0.5s0.5-0.4,0.7-0.7s0.4-0.5,0.6-0.8
	s0.4-0.5,0.5-0.8s0.3-0.5,0.4-0.6l0.4,0.3c-0.1,0.2-0.3,0.5-0.5,0.8s-0.4,0.6-0.6,0.9s-0.4,0.6-0.7,0.8s-0.5,0.5-0.8,0.7
	s-0.6,0.4-0.9,0.5S96.6,17,96.3,17c-0.5,0-0.8-0.1-1-0.4s-0.3-0.6-0.3-1.1c0,0,0-0.1,0-0.2s0-0.2,0-0.3c-0.4,0.5-0.8,0.9-1.1,1.2
	s-0.7,0.6-1,0.8s-0.7,0.3-1,0.4s-0.6,0.1-0.9,0.1c-0.3,0-0.6,0-0.8-0.1s-0.5-0.2-0.7-0.4s-0.4-0.4-0.5-0.7s-0.2-0.6-0.2-0.9
	c0-0.4,0.1-1,0.3-1.5s0.6-1.2,1.1-1.9c0.4-0.6,0.9-1.1,1.3-1.4s0.9-0.7,1.4-0.9s0.9-0.4,1.3-0.5s0.8-0.2,1.1-0.2
	c0.7,0,1.3,0.1,1.6,0.4s0.6,0.6,0.7,1.1c0.2-0.2,0.3-0.4,0.5-0.6s0.3-0.4,0.5-0.6L98.9,9.3z M95.3,13.7c0.1-0.2,0.2-0.4,0.4-0.6
	s0.3-0.5,0.5-0.8s0.3-0.5,0.5-0.8s0.3-0.5,0.4-0.6c0-0.1,0-0.2,0-0.3s-0.1-0.3-0.2-0.5s-0.2-0.3-0.4-0.4S96,9.5,95.7,9.5
	c-0.2,0-0.5,0-0.8,0.1s-0.6,0.2-1,0.4s-0.7,0.4-1,0.7s-0.7,0.6-1.1,1.1c-0.5,0.6-1,1.3-1.2,2s-0.4,1.2-0.4,1.8c0,0.4,0.1,0.8,0.3,1
	s0.5,0.4,0.9,0.4c0.4,0,0.8-0.1,1.2-0.3s0.7-0.4,1.1-0.7s0.6-0.6,0.9-1S95.1,14.1,95.3,13.7z"/>
<path class="st0" d="M107.6,13c-0.1,0.2-0.3,0.4-0.4,0.7s-0.3,0.6-0.6,0.9s-0.4,0.7-0.7,1s-0.5,0.7-0.8,0.9s-0.6,0.5-1,0.7
	s-0.7,0.3-1.1,0.3c-0.2,0-0.4,0-0.6-0.1s-0.4-0.2-0.5-0.3s-0.3-0.3-0.4-0.5s-0.1-0.5-0.1-0.7c0-0.4,0.1-0.8,0.2-1.2s0.3-0.8,0.5-1.2
	s0.4-0.7,0.6-1.1s0.4-0.6,0.4-0.8s0.1-0.4,0.1-0.5c0-0.1,0-0.2-0.1-0.3s-0.1-0.2-0.2-0.2s-0.2-0.2-0.3-0.2s-0.2-0.2-0.3-0.3
	c-0.2,0.3-0.4,0.6-0.6,0.9c-0.2,0.3-0.4,0.6-0.6,0.9s-0.4,0.7-0.6,1l-0.4-0.3l2.5-3.9l0.3,0.2c0,0,0,0.1-0.1,0.2s-0.1,0.2-0.1,0.3
	c0,0.1,0,0.2,0,0.3s0.1,0.2,0.2,0.2c0.3,0.3,0.6,0.5,0.7,0.7s0.3,0.3,0.4,0.4s0.1,0.2,0.2,0.2s0,0.1,0,0.2s0,0.2,0,0.3
	s-0.1,0.3-0.2,0.5s-0.2,0.4-0.3,0.7s-0.3,0.5-0.5,0.9c-0.1,0.2-0.2,0.4-0.3,0.6s-0.2,0.4-0.3,0.6s-0.2,0.4-0.2,0.6s-0.1,0.4-0.1,0.6
	c0,0.1,0,0.3,0.1,0.4s0.1,0.2,0.2,0.2s0.1,0.1,0.2,0.1s0.2,0,0.2,0c0.3,0,0.5-0.1,0.8-0.2s0.5-0.3,0.8-0.6s0.5-0.5,0.7-0.8
	s0.5-0.6,0.7-0.9s0.4-0.6,0.6-0.9s0.3-0.5,0.5-0.8L107.6,13z"/>
</svg>
