<?xml version="1.0" encoding="utf-8"?>
<!-- Generator: Adobe Illustrator 21.1.0, SVG Export Plug-In . SVG Version: 6.00 Build 0)  -->
<svg version="1.1" xmlns="http://www.w3.org/2000/svg" xmlns:xlink="http://www.w3.org/1999/xlink" x="0px" y="0px"
	 viewBox="0 0 150 80" style="enable-background:new 0 0 150 80;" xml:space="preserve">
<style type="text/css">
	.st0{display:none;}
	.st1{display:inline;}
	.st2{fill:none;stroke:#000000;stroke-width:0.75;stroke-miterlimit:10;}
</style>
<g id="Layer_2" class="st0">
	<g id="SV8UFB.tif" class="st1">
		
			<image style="overflow:visible;" width="500" height="350" id="Layer_0_1_" xlink:href="8960670311A309A1.png"  transform="matrix(1 0 0 1 -175 -135)">
		</image>
	</g>
</g>
<g id="Layer_1">
	<g>
		<path class="st2" d="M23.9,25.4c-1.1-0.5-2.2,0-3.3,1.4C22.4,27.3,23.6,27,23.9,25.4z"/>
		<path class="st2" d="M139.7,25.2c-0.5,0.9-1.3,1.8-1.3,2.8c-0.3,7-1.5,13.7-4.9,19.9c-1,1.8-0.4,3.6,0.9,4.8
			c4,3.4,4.4,7.3,2.7,11.9c-0.5,1.5,0.1,3.4,0.3,5.2c0.1,1.1,0.2,2.2,0.3,3.3c0,0.4-0.3,1.1-0.4,1.1c-2.4,0.1-1.7,2.1-2.3,3.7
			c-2.2,0.3-4.6,0.7-7,1.1c-0.1-0.2-0.3-0.5-0.4-0.7c0.7-1.7,1.1-3.4,2-5c4.1-7.1-0.5-14.7-6.4-17.2c-2,4.3-4.1,8.6-6.1,13
			c-1.1,2.4-1.2,2.4-3.4,0.5c-0.5,0.8-1,1.4-1.4,2.2c-1.5,3.6-2.4,4.3-6.3,4.1c-0.8,0-1.5-0.2-2.8-0.3c1.6-2.1,3.1-4,4.4-5.9
			c1.4-2,3.1-3.9,4.2-6.1c1.7-3.3,1.5-6.4-1.1-9.4c-0.8-0.9-1.1-2.2-1.5-3.4c-0.8-2.1-2-2.9-3.6-1.7c-4.7,3.2-10,3-15.3,3
			c-6.3,0-12.6,0.4-18.9-0.8c-4.1-0.8-6.5,1.1-6.7,5.3c-0.2,4,0.4,8.1,0.6,12.2c0.1,1.3,0.2,2.5,0.2,3.8c0,1.2-0.3,2.2-1.8,2.4
			c-0.4,0.1-0.7,0.6-0.9,1.1c-1,2.6-4.1,4.1-6.7,3c-1.6-0.7-0.8-1.7-0.2-2.6c1.8-2.9,3.2-6,2.8-9.5c-0.2-1.6-1-3.2-1.5-4.8
			c-0.4,0-0.7,0.1-1.1,0.1c-0.3,2.4-0.6,4.7-0.8,7.1c-0.1,1.8-0.4,3.2-2.8,2.4c-0.1,0.5-0.3,0.8-0.4,1.2c-0.9,3.1-3.7,4.7-6.9,4
			c-1.4-0.3-1.3-1.2-0.7-2c0.8-1.2,1.6-2.3,2.6-3.3c2.8-2.7,3.3-6.1,3-9.7c-0.1-1.1-0.3-2.2-0.4-3.4c-0.1-3.6-1.5-5.2-5.3-6.4
			c-2.6-0.8-5.2-1.5-7.8-2c-4.3-0.9-8.6-1.4-13-1.5c-4.3-0.1-7.9-2.2-11.5-4.4c-1.5-0.9-4.5-2.4-4.5-2.4s-2.4-1-3.5-1.5
			c-1.6-0.7-2.7-1.4-2.6-3.3c0.1-1.2,0-2.4,0.1-3.6c0.2-2.8,0.5-2.9,3.3-3c5-0.1,8.9-2.5,11.7-6.5c0.6-0.8,0.3-2.6-0.2-3.6
			c-1.4-3.1-3.2-6-4.7-9.1c-0.8-1.6-0.1-2.8,1.8-2.7c2.1,0.1,4.3,0.5,6.4,0.8c-0.3-1-0.7-2.2-1.1-3.4c0.2-0.2,0.3-0.4,0.5-0.6
			c1.1,0.4,2.2,0.8,3.2,1.4c0.9,0.5,1.6,1.3,2.4,2.1c2.6,2.5,5.2,3.2,8.7,1.5c5.5-2.7,11.6-3,17.5-2.9c11.2,0.2,22.1-1.9,33-4
			c6.6-1.3,13.3-3,20.1-1.9c9.6,1.4,19,3.4,26.9,9.5c3,2.3,5.5,5,6.8,8.7c0.6,1.8,1.5,3.4,3.7,3.9c0.6,0.2,1.4,1.7,1.3,2.4
			c-0.7,3-0.3,4.4,2.3,6.1c0.9,0.6,2,1.1,2.8,1.9c0.5,0.5,0.8,2,0.5,2.3c-0.6,0.5-2.1,1-2.5,0.7c-1.4-1.1-2.5-2.5-3.6-4
			c-0.8-1.1-1.6-2.3-2-3.6c-0.3-1.1-0.1-2.4-0.1-3.7C140.1,25.5,139.9,25.3,139.7,25.2z"/>
	</g>
</g>
</svg>
