<svg id="Layer_1" data-name="Layer 1" xmlns="http://www.w3.org/2000/svg" viewBox="0 0 57.03 374.81"><defs><style>.cls-1{fill:#c8bbb5;}.cls-1,.cls-2{stroke:#2d3a3d;stroke-miterlimit:10;}.cls-2{fill:none;}</style></defs><title>Untitled-1</title><rect class="cls-1" x="0.5" y="0.5" width="42.86" height="373.81"/><polygon class="cls-2" points="12.02 17.81 19.15 28.4 5.57 28.83 12.02 17.81"/><polygon class="cls-2" points="30.6 34.88 37.73 45.46 24.15 45.89 30.6 34.88"/><polygon class="cls-2" points="30.6 2.8 37.73 13.38 24.15 13.81 30.6 2.8"/><polygon class="cls-2" points="11.23 63.81 18.36 74.4 4.77 74.83 11.23 63.81"/><polygon class="cls-2" points="30.6 93.95 37.73 104.53 24.15 104.96 30.6 93.95"/><polygon class="cls-2" points="11.23 122.1 18.36 132.69 4.77 133.12 11.23 122.1"/><polygon class="cls-2" points="12.02 328.88 19.15 339.47 5.57 339.9 12.02 328.88"/><polygon class="cls-2" points="30.6 288.23 37.73 298.81 24.15 299.24 30.6 288.23"/><polygon class="cls-2" points="12.02 248.24 19.15 258.83 5.57 259.26 12.02 248.24"/><polygon class="cls-2" points="30.6 203.87 37.73 214.46 24.15 214.88 30.6 203.87"/><polygon class="cls-2" points="11.23 181.9 18.36 192.48 4.77 192.91 11.23 181.9"/><polygon class="cls-2" points="24.81 153.02 31.94 163.61 18.36 164.03 24.81 153.02"/><rect class="cls-2" x="43.36" y="0.5" width="13.18" height="373.81"/><line class="cls-2" x1="43.36" y1="10.61" x2="56.53" y2="10.61"/><line class="cls-2" x1="43.36" y1="188.61" x2="56.53" y2="188.61"/><line class="cls-2" x1="43.36" y1="174.21" x2="56.53" y2="174.21"/><line class="cls-2" x1="43.36" y1="361.62" x2="56.53" y2="361.62"/></svg>